<svg xmlns="http://www.w3.org/2000/svg" version="1.1" xmlns:xlink="http://www.w3.org/1999/xlink" xmlns:svgjs="http://svgjs.dev/svgjs" width="1000" height="1000" viewBox="0 0 1000 1000"><rect width="1000" height="1000" fill="#ffffff"></rect><g transform="matrix(0.7,0,0,0.7,149.84897959183667,150.19913061224486)"><svg viewBox="0 0 343 343" data-background-color="#ffffff" preserveAspectRatio="xMidYMid meet" height="999" width="1000" xmlns="http://www.w3.org/2000/svg" xmlns:xlink="http://www.w3.org/1999/xlink"><g id="tight-bounds" transform="matrix(1,0,0,1,0.0740000000000407,0.07400000000001228)"><svg viewBox="0 0 342.85155851775386 342.85155851775386" height="342.85155851775386" width="342.85155851775386"><g><svg></svg></g><g><svg viewBox="0 0 342.85155851775386 342.85155851775386" height="342.85155851775386" width="342.85155851775386"><g><path d="M0 171.426c0-94.676 76.75-171.426 171.426-171.426 94.676 0 171.426 76.75 171.426 171.426 0 94.676-76.75 171.426-171.426 171.426-94.676 0-171.426-76.75-171.426-171.426zM171.426 330.672c87.949 0 159.246-71.297 159.246-159.246 0-87.949-71.297-159.246-159.246-159.246-87.949 0-159.246 71.297-159.246 159.246 0 87.949 71.297 159.246 159.246 159.246z" data-fill-palette-color="tertiary" fill="#000000" stroke="transparent"></path><ellipse rx="164.56874808852186" ry="164.56874808852186" cx="171.42577925887693" cy="171.42577925887693" fill="#000000" stroke="transparent" stroke-width="0" fill-opacity="1" data-fill-palette-color="tertiary"></ellipse></g><g transform="matrix(1,0,0,1,64.84655864529837,103.89533583369705)"><svg viewBox="0 0 213.1584412271571 135.06088685035976" height="135.06088685035976" width="213.1584412271571"><g><svg viewBox="0 0 213.1584412271571 135.06088685035976" height="135.06088685035976" width="213.1584412271571"><g><svg viewBox="0 0 213.1584412271571 135.06088685035976" height="135.06088685035976" width="213.1584412271571"><g><svg viewBox="0 0 213.1584412271571 135.06088685035976" height="135.06088685035976" width="213.1584412271571"><g id="textblocktransform"><svg viewBox="0 0 213.1584412271571 135.06088685035976" height="135.06088685035976" width="213.1584412271571" id="textblock"><g><svg viewBox="0 0 213.1584412271571 135.06088685035976" height="135.06088685035976" width="213.1584412271571"><g transform="matrix(1,0,0,1,0,0)"><svg width="213.1584412271571" viewBox="5.400000095367432 -36.849998474121094 64.54999542236328 40.89999771118164" height="135.06088685035976" data-palette-color="#ffffff"><path d="M25.7-21.3L25.7-21.3Q27.35-21.3 28.28-20.4 29.2-19.5 29.2-17.9L29.2-17.9Q29.2-17.5 29.13-17.07 29.05-16.65 28.95-16.35L28.95-16.35Q28.3-16.45 27.5-16.53 26.7-16.6 25.6-16.6L25.6-16.6Q23.45-16.6 21.25-16.23 19.05-15.85 17.05-15.6L17.05-15.6Q15.9-12.95 14.95-10.48 14-8 13.33-5.95 12.65-3.9 12.28-2.4 11.9-0.9 11.85-0.15L11.85-0.15Q15.9-1 20.03-1.6 24.15-2.2 28.7-2.5L28.7-2.5Q29.25-1.65 29.63-0.65 30 0.35 30 1.5L30 1.5Q30 1.8 30 2.15 30 2.5 29.9 2.85L29.9 2.85Q28.5 2.8 26.95 2.78 25.4 2.75 22.9 2.75L22.9 2.75Q21.25 2.75 19.78 2.83 18.3 2.9 16.8 3.05 15.3 3.2 13.63 3.45 11.95 3.7 9.85 4.05L9.85 4.05Q7.55 3.15 5.4-0.35L5.4-0.35Q6.25-2.15 7.78-5.83 9.3-9.5 11.65-15.65L11.65-15.65Q9.4-16.35 8.7-18.15L8.7-18.15Q8.95-18.4 10.15-18.78 11.35-19.15 13.1-19.55L13.1-19.55Q13.85-21.5 14.38-22.95 14.9-24.4 15.3-25.68 15.7-26.95 16.03-28.18 16.35-29.4 16.65-30.85L16.65-30.85Q14.9-30.95 13.9-31.83 12.9-32.7 12.9-34.1L12.9-34.1Q12.9-34.5 13.03-35.05 13.15-35.6 13.3-36L13.3-36Q14.3-35.85 15.23-35.8 16.15-35.75 17.65-35.75L17.65-35.75Q20.8-35.75 23.55-35.93 26.3-36.1 28.53-36.3 30.75-36.5 32.35-36.68 33.95-36.85 34.8-36.85L34.8-36.85Q35.95-36.85 36.85-35.65 37.75-34.45 38.2-32.25L38.2-32.25Q36.65-32.4 35.68-32.45 34.7-32.5 33.95-32.5L33.95-32.5Q31.2-32.5 28.93-32.23 26.65-31.95 24.55-31.65L24.55-31.65Q24.25-31.2 23.88-30.5 23.5-29.8 22.9-28.55 22.3-27.3 21.43-25.4 20.55-23.5 19.3-20.65L19.3-20.65Q21.2-20.95 22.88-21.13 24.55-21.3 25.7-21.3ZM69.95-27.55L69.95-27.55Q69.95-24.45 68.25-22.03 66.55-19.6 63.6-18L63.6-18Q65.5-16.7 66.62-14.83 67.75-12.95 67.75-10.7L67.75-10.7Q67.75-8 66.12-5.38 64.5-2.75 61.8-0.73 59.1 1.3 55.65 2.55 52.2 3.8 48.6 3.8L48.6 3.8Q44.7 3.8 41.77 2.33 38.85 0.85 37.2-1.85L37.2-1.85Q37.7-3.35 38.52-5.58 39.35-7.8 40.35-10.28 41.35-12.75 42.37-15.2 43.4-17.65 44.3-19.6L44.3-19.6Q46.2-23.85 47.7-26.65 49.2-29.45 50.45-31.1L50.45-31.1Q47.7-30.25 45.45-29.18 43.2-28.1 42.15-27.1L42.15-27.1Q41.7-27.4 41.22-28 40.75-28.6 40.32-29.33 39.9-30.05 39.62-30.8 39.35-31.55 39.3-32.15L39.3-32.15Q40.6-33.05 42.67-33.88 44.75-34.7 47.2-35.3 49.65-35.9 52.22-36.25 54.8-36.6 57.15-36.6L57.15-36.6Q63.15-36.6 66.55-34.2 69.95-31.8 69.95-27.55ZM50.9-15.6L50.9-15.6Q49.95-16.05 49.15-16.95L49.15-16.95Q48-14.4 46.97-11.95 45.95-9.5 45.15-7.4 44.35-5.3 43.85-3.75 43.35-2.2 43.3-1.5L43.3-1.5Q44-1.1 44.97-0.9 45.95-0.7 47.4-0.7L47.4-0.7Q50.8-0.7 53.9-1.65 57-2.6 59.35-4.23 61.7-5.85 63.1-7.95 64.5-10.05 64.5-12.35L64.5-12.35Q64.5-15.65 61.65-17.1L61.65-17.1Q57.75-15.5 52.85-15.5L52.85-15.5Q52.15-15.5 51.77-15.5 51.4-15.5 50.9-15.6ZM60.6-32.95L60.6-32.95Q59.55-32.95 58.37-32.83 57.2-32.7 55.9-32.45L55.9-32.45Q56.1-32.25 56.22-32.02 56.35-31.8 56.45-31.55L56.45-31.55Q56-30.95 55.35-29.8 54.7-28.65 53.9-27.13 53.1-25.6 52.22-23.75 51.35-21.9 50.45-19.95L50.45-19.95Q51.3-20.15 52.52-20.28 53.75-20.4 54.95-20.4L54.95-20.4Q55.6-20.4 56.22-20.35 56.85-20.3 57.45-20.2L57.45-20.2Q59.85-20.6 61.77-21.38 63.7-22.15 65.1-23.18 66.5-24.2 67.25-25.45 68-26.7 68-28.1L68-28.1Q68-30.5 66.1-31.73 64.2-32.95 60.6-32.95Z" opacity="1" transform="matrix(1,0,0,1,0,0)" fill="#ffffff" class="undefined-text-0" data-fill-palette-color="quaternary" id="text-0"></path></svg></g></svg></g></svg></g></svg></g><g></g></svg></g></svg></g></svg></g></svg></g><defs></defs></svg><rect width="342.85155851775386" height="342.85155851775386" fill="none" stroke="none" visibility="hidden"></rect></g></svg></g></svg>